<?xml version="1.0" encoding="utf-8"?>
<!-- Generator: Adobe Illustrator 19.0.0, SVG Export Plug-In . SVG Version: 6.00 Build 0)  -->
<svg version="1.1" id="Layer_1" xmlns="http://www.w3.org/2000/svg" xmlns:xlink="http://www.w3.org/1999/xlink" x="0px" y="0px"
	 viewBox="0 0 229 235.7" style="enable-background:new 0 0 229 235.7;" xml:space="preserve">
<style type="text/css">
	.st0{fill:#FFFFFF;}
</style>
<g id="XMLID_609_">
	<path id="XMLID_610_" class="st0" d="M213,235.7c-2.1,0-4.3,0-6.4,0c-4.3-1.3-8.1-3.3-11.4-6.6C158.6,192.6,122,156,85.5,119.4
		c-0.5-0.5-1-1.1-1.6-1.8c0.8-0.8,1.6-1.4,2.2-2c35.5-35.5,71.1-71,106.6-106.6c4.1-4.1,8.4-7.8,14.3-9c1.8,0,3.7,0,5.5,0
		c0.9,0.3,1.7,0.6,2.6,0.8c6.6,2,11,6.3,13,12.8c2.4,7.8-0.1,14.4-5.7,20.1c-27.4,27.4-54.8,54.8-82.2,82.1c-0.6,0.6-1.2,1.3-2,2.1
		c0.9,0.8,1.6,1.3,2.2,2c27.1,27.1,54.2,54.2,81.3,81.4c1.1,1.1,2.2,2.3,3.2,3.6c6.2,7.8,5,20-2.9,26.1
		C219.4,233.1,216,234.2,213,235.7z"/>
	<path id="XMLID_611_" class="st0" d="M123.6,235.7c-6-1.3-10.2-5.2-14.4-9.3c-35.4-35.5-70.9-71-106.4-106.4
		c-0.6-0.6-1.4-1.1-2.9-2.3c1.4-0.9,2.3-1.4,3-2.1C38.5,80.2,73.9,44.8,109.2,9.3c4.2-4.2,8.4-8,14.4-9.3c2,0,4,0,6,0
		c0.8,0.3,1.6,0.6,2.4,0.8c8.2,2.5,13.6,9.5,13.8,18c0.1,6.1-2.5,10.9-6.7,15.1c-27.3,27.3-54.6,54.6-81.9,81.8
		c-0.6,0.6-1.5,1-2.4,1.6c1.1,1.2,1.7,1.8,2.3,2.4c12.5,12.5,24.9,25,37.4,37.4c15,15,30,29.9,44.9,44.9c8.2,8.2,8.6,19.2,1.3,27.4
		c-3,3.3-6.9,4.9-11.1,6.2C127.6,235.7,125.6,235.7,123.6,235.7z"/>
</g>
</svg>
