<?xml version="1.0" encoding="utf-8"?>
<!-- Generator: Adobe Illustrator 19.0.0, SVG Export Plug-In . SVG Version: 6.00 Build 0)  -->
<svg version="1.1" id="Layer_1" xmlns="http://www.w3.org/2000/svg" xmlns:xlink="http://www.w3.org/1999/xlink" x="0px" y="0px"
	 viewBox="0 0 515.6 515.6" style="enable-background:new 0 0 515.6 515.6;" xml:space="preserve">
<style type="text/css">
	.st0{fill:#00A551;}
	.st1{fill:#FFFFFF;}
</style>
<g id="XMLID_399_">
	<g id="XMLID_386_">
		<circle id="XMLID_28_" class="st0" cx="257.8" cy="257.8" r="240.5"/>
		<path id="XMLID_29_" class="st1" d="M257.8,515.6C115.6,515.6,0,399.9,0,257.8S115.6,0,257.8,0c142.1,0,257.8,115.6,257.8,257.8
			S399.9,515.6,257.8,515.6z M257.8,34.5c-123.1,0-223.3,100.2-223.3,223.3s100.2,223.3,223.3,223.3s223.3-100.2,223.3-223.3
			S380.9,34.5,257.8,34.5z"/>
	</g>
	<g id="XMLID_387_">
		<g id="_x39__34_">
			<g id="XMLID_396_">
				<g id="XMLID_397_">
					<path id="XMLID_27_" class="st1" d="M409.3,137.2c-16.3-16.7-42.8-16.7-59.1,0L202.3,287.9l-37-37.7
						c-16.3-16.7-42.8-16.7-59.1,0c-16.3,16.7-16.3,43.7,0,60.3l66.5,67.9c16.3,16.7,42.8,16.7,59.1,0l177.4-180.9
						C425.6,180.8,425.6,153.8,409.3,137.2z"/>
				</g>
			</g>
		</g>
	</g>
</g>
</svg>
