<?xml version="1.0" encoding="utf-8"?>
<!-- Generator: Adobe Illustrator 19.0.0, SVG Export Plug-In . SVG Version: 6.00 Build 0)  -->
<svg version="1.1" id="Layer_1" xmlns="http://www.w3.org/2000/svg" xmlns:xlink="http://www.w3.org/1999/xlink" x="0px" y="0px"
	 viewBox="0 0 515.6 560" style="enable-background:new 0 0 515.6 560;" xml:space="preserve">
<style type="text/css">
	.st0{fill:#FFFFFF;}
</style>
<g id="XMLID_256_">
	<path id="XMLID_331_" class="st0" d="M183.4,0c49.6,0,99.2,0,148.8,0c19.2,12.5,34.3,28.3,40.6,51.1c1.5,5.5,5.6,10.5,6.7,16.1
		c4.4,22.3,18,27.6,39.3,25.8c23.9-2,48.1,0.1,72.1-0.6c17.8-0.5,24.7,6.8,24.8,24.6c0.1,18.6-8.1,24.7-25.4,23.2
		c-6.9-0.6-14,0.6-22.5,1c0,9.4,0,17.3,0,25.2c0,103.4-0.6,206.9,0.3,310.3c0.3,36.6-11.3,65.1-44,83.4c-110.8,0-221.7,0-332.5,0
		c-32.2-17.5-44.3-44.9-44-81c0.9-104.9,0.3-209.9,0.3-314.8c0-7.7,0-15.5,0-24.3c-10.1,0-17.4-0.6-24.5,0.1
		C6,141.7-0.1,133.6,0,117c0.1-15.9,4.9-25,22.5-24.6C48.7,92.9,75,91,101.1,93c19.7,1.6,28.6-5.8,34.3-23.7
		C144.3,41.7,155.8,15.1,183.4,0z M95.6,140.6c0,117.7-0.1,233.3,0.1,348.9c0,16.9,8.8,23.5,26.5,23.3c86.6-0.8,173.3-0.3,260-0.3
		c36,0,38-1.9,38-38.2c0.1-104.9,0.1-209.7,0-314.6c0-6.2-0.9-12.5-1.4-19.2C310.9,140.6,204.7,140.6,95.6,140.6z M335.2,91.6
		c-8.6-42.7-10.1-44.1-49.3-44.1c-18.2,0-36.4,0-54.5,0c-40.4,0-44,3.1-50.6,44.1C232.2,91.6,283.6,91.6,335.2,91.6z"/>
	<path id="XMLID_322_" class="st0" d="M187.7,327.3c0,32-0.6,64,0.2,95.9c0.5,17.5-8.9,20.6-23.2,20.6c-13.9,0-24.5-2.5-24.5-19.8
		c0.2-64.7,0.2-129.4-0.1-194.1c-0.1-18.9,11.3-19.9,26-20.3c16-0.3,22.2,5.5,21.8,21.6C187.1,263.4,187.7,295.4,187.7,327.3z"/>
	<path id="XMLID_321_" class="st0" d="M327.8,325.1c0-30.5,0.6-61.1-0.2-91.6c-0.4-16,3.6-24.2,21.8-23.9
		c16.4,0.3,26.2,3.3,26.1,22.6c-0.6,63.2-0.5,126.5,0,189.7c0.1,17.9-9.1,22-24.6,22.1c-16.3,0.1-23.8-5.3-23.2-22.9
		C328.6,389.1,327.8,357.1,327.8,325.1z"/>
	<path id="XMLID_320_" class="st0" d="M234,323.8c0-30.6,0.4-61.3-0.2-91.9c-0.3-17.4,7.6-22.2,24.1-22.3
		c16.8-0.1,23.9,5.5,23.8,22.6c-0.4,62.7-0.4,125.4,0,188.1c0.1,16.5-5.9,23.7-23,23.8c-17.5,0.1-25.4-5.9-24.9-24.1
		C234.5,387.9,234,355.9,234,323.8z"/>
</g>
</svg>
