<?xml version="1.0" encoding="utf-8"?>
<!-- Generator: Adobe Illustrator 19.0.0, SVG Export Plug-In . SVG Version: 6.00 Build 0)  -->
<svg version="1.1" id="Layer_1" xmlns="http://www.w3.org/2000/svg" xmlns:xlink="http://www.w3.org/1999/xlink" x="0px" y="0px"
	 viewBox="0 0 709.5 192.2" style="enable-background:new 0 0 709.5 192.2;" xml:space="preserve">
<style type="text/css">
	.st0{fill:#00A551;}
	.st1{fill:#FFFFFF;}
</style>
<g id="XMLID_53_">
	<path id="XMLID_110_" class="st0" d="M162.5,154.1c-3.2,1.9-6.5,3.5-10,4.6c-5,1.6-10.7,2.5-17,2.5c-33,0-49.7-17.5-49.7-51.9
		c0-12.2,2.3-22.7,7-31.4c4.7-8.7,11-15.4,19-19.8c7.8-4.4,16.7-6.6,26.4-6.6c4.2,0,8.5,0.4,12.7,1.3c2.2,0.5,4.2,1,6.2,1.7V11.9
		h20.4C171.1,4.6,161.8,0,151.5,0h-117C15.4,0,0,15.4,0,34.4v123.4c0,19,15.4,34.4,34.4,34.4h117c18.6,0,33.7-14.7,34.4-33.1h-21.9
		L162.5,154.1z"/>
	<path id="XMLID_113_" class="st1" d="M163.9,18.8v46.6l-5-2.6c-2.6-1.4-5.8-2.5-9.4-3.2c-3.7-0.8-7.5-1.2-11.3-1.2
		c-8.5,0-16.3,1.9-23.1,5.7c-6.7,3.7-12.2,9.5-16.2,17c-4.1,7.6-6.2,17.1-6.2,28.1c0,30.3,14,45.1,42.8,45.1
		c5.6,0,10.6-0.7,14.9-2.1c4.3-1.4,8.3-3.5,12-6.3l4-3l2.8,9.4h32.7V18.8H163.9z M163.9,122.6l-1.2,1c-4.1,3.6-8.9,5.4-14.3,5.4
		c-3.8,0-6.8-0.5-9.1-1.4c-2.7-1.1-4.8-3.3-6.1-6.4c-1.2-2.7-1.7-6.6-1.7-11.9c0-8,1.2-14.1,3.7-18.4c2.8-4.8,7.4-7.3,13.3-7.3
		c5.7,0,10.5,1.7,14.3,5l1.2,1V122.6z"/>
	<path id="XMLID_120_" class="st1" d="M268.2,66.8l-4.4,2.6l-1.4-9h-37.1v91.8h37.9V91.5l2.1-0.9c4-1.6,9.3-3,16.1-4.1
		c5.3-0.9,10.4-1.5,15.1-1.8V58.5c-4.6,0.4-9.3,1.2-13.9,2.5C276.8,62.6,271.9,64.6,268.2,66.8z"/>
	<path id="XMLID_123_" class="st1" d="M384.1,67.9c-8.8-6.3-21.3-9.5-37.1-9.5c-7.5,0-15.3,0.6-23,1.9c-6.6,1.1-12.2,2.5-16.7,4.2
		v18.3c4.2-1.1,8.6-2,13.1-2.7c6.1-0.9,12-1.4,17.6-1.4c15.4,0,23.2,4,23.2,12v4.9h-27.4c-13.3,0-23.2,2.6-29.6,7.8
		c-6.2,5-9.2,12.3-9.2,22.1c0,9.8,2.8,16.9,8.5,21.6l0,0c5.9,4.8,13.5,7.2,22.8,7.2c13.5,0,23.8-2.9,30.7-8.8l4.2-3.6l2.6,10.3h33
		V95.9C396.8,83.2,392.7,74,384.1,67.9z M361.3,127.6l-0.9,1c-4.5,4.9-10.5,7.3-17.7,7.3c-12.1,0-13.4-8.2-13.4-11.8
		c0-5.2,2.2-8,4.1-9.3c2.4-1.8,5.8-2.6,10.4-2.6h17.6V127.6z"/>
	<path id="XMLID_133_" class="st1" d="M515.5,160.6c0-8.1-2.5-14-7.6-18.1c-5.3-4.2-12.9-6.3-22.4-6.3h-20c-2.6,0-4.5-0.3-6-0.9
		c-2.4-0.9-3.7-3-3.7-5.7c0-4.7,4.2-7.5,12.5-8.2l0.3,0l0.3,0c8.6,0.5,10.6,0.6,11,0.6c11.4,0,19.7-2.5,24.9-7.6
		c5.2-5.1,7.7-12.2,7.7-21.7c0-2.7-0.6-5-2-7.1l-3.3-5.3h13.7c0.4-1.5,0.9-3,1.4-4.4l0.5-15.6L486,60.3c-2.1-0.4-5.4-0.8-9.9-1.3
		c-4.4-0.5-8.3-0.7-11.5-0.7c-16.1,0-28.6,2.9-36.9,8.6c-8,5.5-11.9,13.7-11.9,25.3c0,6.1,1.1,11.2,3.4,14.9c2.2,3.7,5.9,6.9,11,9.5
		l7.4,3.8l-7.9,2.6c-4.5,1.5-7.9,3.6-10.1,6.4c-2.2,2.7-3.3,5.9-3.3,9.7c0,3.9,0,15.9,29.9,15.9h24.8c3.9,0,6.5,0.2,8.3,0.8
		c2.8,0.8,4.5,3,4.5,5.8c0,5.7-6.9,7.8-25.3,7.8c-7.3,0-15.2-0.5-23.4-1.4c-6.2-0.7-11.6-1.6-16.3-2.9v19.7
		c4.2,1.2,9.8,2.2,16.9,2.8c8.6,0.8,17.2,1.2,25.5,1.2c18.9,0,32.9-2.6,41.9-7.9C511.4,176,515.5,169.4,515.5,160.6z M448.3,90.3
		c0-4.9,1.4-8.7,4.3-11.1c2.8-2.4,6.8-3.5,12.5-3.5c5.6,0,9.7,1.1,12.3,3.4c2.8,2.4,4.2,6.2,4.2,11.2c0,5.1-1.4,8.8-4,11.1
		c-2.5,2.2-6.6,3.2-12.5,3.2c-5.8,0-9.9-1.1-12.6-3.4C449.7,98.7,448.3,95,448.3,90.3z"/>
	<path id="XMLID_139_" class="st1" d="M625.8,160.6c0-8.1-2.5-14-7.6-18.1c-5.3-4.2-12.9-6.3-22.4-6.3h-20c-2.6,0-4.5-0.3-6-0.9
		c-2.4-0.9-3.7-3-3.7-5.7c0-4.7,4.2-7.5,12.5-8.2l0.3,0l0.3,0c8.6,0.5,10.6,0.6,11,0.6c11.4,0,19.7-2.5,24.9-7.6
		c5.2-5.1,7.7-12.2,7.7-21.7c0-2.7-0.6-5-2-7.1l-3.3-5.3h14v-20l-35.1-0.1c-2.1-0.4-5.4-0.8-9.9-1.3c-4.4-0.5-8.3-0.7-11.5-0.7
		c-16.1,0-28.6,2.9-36.9,8.6c-8,5.5-11.9,13.7-11.9,25.3c0,6.1,1.1,11.2,3.4,14.9c2.2,3.7,5.9,6.9,11,9.5l7.4,3.8l-7.9,2.6
		c-4.5,1.5-7.9,3.6-10.1,6.4c-2.2,2.7-3.3,5.9-3.3,9.7c0,3.9,0,15.9,29.9,15.9h24.8c3.9,0,6.5,0.2,8.3,0.8c2.8,0.8,4.5,3,4.5,5.8
		c0,5.7-6.9,7.8-25.3,7.8c-7.3,0-15.2-0.5-23.4-1.4c-6.2-0.7-11.6-1.6-16.3-2.9v19.7c4.2,1.2,9.8,2.2,16.9,2.8
		c8.6,0.8,17.2,1.2,25.5,1.2c18.9,0,32.9-2.6,41.9-7.9C621.7,176,625.8,169.4,625.8,160.6z M558.6,90.3c0-4.9,1.4-8.7,4.3-11.1
		c2.8-2.4,6.8-3.5,12.5-3.5c5.6,0,9.7,1.1,12.3,3.4c2.8,2.4,4.2,6.2,4.2,11.2c0,5.1-1.4,8.8-4,11.1c-2.5,2.2-6.6,3.2-12.5,3.2
		c-5.8,0-9.9-1.1-12.6-3.4C560,98.7,558.6,95,558.6,90.3z"/>
	<path id="XMLID_143_" class="st1" d="M681.2,66.8l-4.4,2.6l-1.4-9h-37.1v91.8h37.9V91.5l2.1-0.9c4-1.6,9.3-3,16-4.1
		c5.3-0.9,10.4-1.5,15.1-1.8V58.5c-4.6,0.4-9.3,1.2-13.9,2.5C689.8,62.6,685,64.6,681.2,66.8z"/>
</g>
</svg>
