<?xml version="1.0" encoding="utf-8"?>
<!-- Generator: Adobe Illustrator 19.0.0, SVG Export Plug-In . SVG Version: 6.00 Build 0)  -->
<svg version="1.1" id="Layer_1" xmlns="http://www.w3.org/2000/svg" xmlns:xlink="http://www.w3.org/1999/xlink" x="0px" y="0px"
	 viewBox="0 0 183.3 183.3" style="enable-background:new 0 0 183.3 183.3;" xml:space="preserve">
<style type="text/css">
	.st0{fill:#FFFFFF;}
</style>
<g id="XMLID_62_">
	<path id="XMLID_90_" class="st0" d="M101.7,0c1.5,0,3.1,0,4.6,0c5.4,1.5,10.8,3,16.1,4.7c7.4,2.4,7.9,3,6.9,10.8
		c-0.7,5.5,0.8,9.8,4.4,13.8c7,7.5,13.7,9.2,23.2,5.7c4.1-1.5,7.2-1.3,9.5,3c2.7,5.1,6,9.9,8.6,15c3.1,6.1,2.3,7-2.9,11.5
		c-2.5,2.1-4.5,5.3-5.5,8.4c-2,6-0.7,12.1,2.2,17.7c1.1,2.2,3.2,4.1,5.3,5.5c2.8,1.9,6.1,3.2,9.2,4.8c0,1.8,0,3.7,0,5.5
		c-1.6,5.3-3.2,10.7-5,16c-2.5,7.3-3.6,8.1-11.3,6.6c-4.8-1-8.7,0.4-12.4,3.2c-8.4,6.3-10.5,14.6-6.2,24.4c1.9,4.2,1.9,7.5-2.7,9.9
		c-5.4,2.9-10.5,6.1-16,8.8c-5.8,2.8-7,2.5-10.5-3c-4-6.4-9.9-7.9-16.6-7.1c-7.3,0.9-14,3-16.7,11.3c-0.8,2.4-2.4,4.5-3.7,6.8
		c-1.8,0-3.7,0-5.5,0c-5.4-1.6-10.8-3-16.1-4.8c-6.9-2.3-7.6-3.7-6.7-11c1.5-11.4-9.1-22.8-20.5-21.7c-2.9,0.3-5.8,1.8-8.6,2.8
		c-3.5,1.3-6.1,0.8-8.1-2.7c-2.2-4-4.9-7.7-7.1-11.7c-5.5-10-5.4-10,3.5-16.9c5.3-4.1,7.1-9.9,6.4-16.2c-0.7-6.8-4-11.9-10.8-14.5
		C5.9,85.4,3,83.3,0,81.6C0,80,0,78.5,0,77c1.4-5.3,2.8-10.5,4.4-15.8c2.4-7.9,3.1-8.4,11.4-7.2c5.5,0.8,10-0.7,13.7-4.6
		c6.2-6.6,10.5-13.6,6-23.3c-2.6-5.7-1.7-7.1,3.6-10.4c4.6-2.9,9.6-5.3,14.2-8.2c4.5-2.9,7.9-1.4,10.4,2.5c5.7,8.8,14,8.5,22.7,6.6
		c5.4-1.2,9.2-4.1,11-9.8C98.2,4.4,100.2,2.3,101.7,0z M93,139.5c27,0.1,48.9-21.7,48.9-48.7c-0.1-26.6-22.1-48.6-48.7-48.7
		c-26.9,0-48.8,21.9-48.8,48.9C44.3,117.8,66,139.4,93,139.5z"/>
</g>
</svg>
