<?xml version="1.0" encoding="utf-8"?>
<!-- Generator: Adobe Illustrator 19.0.0, SVG Export Plug-In . SVG Version: 6.00 Build 0)  -->
<svg version="1.1" id="Layer_1" xmlns="http://www.w3.org/2000/svg" xmlns:xlink="http://www.w3.org/1999/xlink" x="0px" y="0px"
	 viewBox="-835 32.8 220 227.6" style="enable-background:new -835 32.8 220 227.6;" xml:space="preserve">
<style type="text/css">
	.st0{fill:#43544B;}
	.st1{fill:#00A551;}
	.st2{fill:#FFFFFF;}
</style>
<rect x="-340" y="188.6" class="st0" width="216" height="192.2"/>
<path id="XMLID_110_" class="st1" d="M-177.5,342.7c-3.2,1.9-6.5,3.5-10,4.6c-5,1.6-10.7,2.5-17,2.5c-33,0-49.7-17.5-49.7-51.9
	c0-12.2,2.3-22.7,7-31.4c4.7-8.7,11-15.4,19-19.8c7.8-4.4,16.7-6.6,26.4-6.6c4.2,0,8.5,0.4,12.7,1.3c2.2,0.5,4.2,1,6.2,1.7v-42.6
	h20.4c-6.4-7.3-15.7-11.9-26-11.9h-117c-19.1,0-34.5,15.4-34.5,34.4v123.4c0,19,15.4,34.4,34.4,34.4h117c18.6,0,33.7-14.7,34.4-33.1
	h-21.9L-177.5,342.7z"/>
<g id="XMLID_113_">
	<path class="st2" d="M-374.5,527.4c-30.7,0-46.3-16.4-46.3-48.6c0-11.6,2.2-21.6,6.6-29.8c4.4-8.2,10.3-14.4,17.6-18.4
		c7.3-4.1,15.6-6.1,24.8-6.1c4.1,0,8.1,0.4,12,1.3c3.8,0.7,7.2,1.9,10.2,3.5V385h45v140.5h-38.8l-2.1-7.1c-4,3-8.4,5.3-13,6.8
		C-363.1,526.6-368.5,527.4-374.5,527.4z M-361.5,456.7c-4.7,0-8.1,1.9-10.3,5.6c-2.1,3.7-3.2,9.3-3.2,16.6c0,4.9,0.5,8.4,1.4,10.5
		c1,2.3,2.4,3.8,4.2,4.6c1.9,0.8,4.6,1.1,7.8,1.1c4.6,0,8.5-1.5,12-4.5l0.1-0.1v-29.7C-352.7,458.1-356.7,456.7-361.5,456.7z"/>
	<path class="st0" d="M-308.1,388.4v133.5h-32.7l-2.8-9.4l-4,3c-3.7,2.8-7.7,4.9-12,6.3c-4.3,1.4-9.3,2.1-14.9,2.1
		c-28.8,0-42.8-14.8-42.8-45.1c0-11,2.1-20.5,6.2-28.1c4-7.5,9.5-13.3,16.2-17c6.8-3.8,14.6-5.7,23.1-5.7c3.8,0,7.6,0.4,11.3,1.2
		c3.6,0.7,6.8,1.8,9.4,3.2l5,2.6v-46.6H-308.1 M-361.6,498.6c5.4,0,10.2-1.8,14.3-5.4l1.2-1h0.1v-33l-1.2-1c-3.8-3.3-8.6-5-14.3-5
		c-5.9,0-10.5,2.5-13.3,7.3c-2.5,4.3-3.7,10.4-3.7,18.4c0,5.3,0.5,9.2,1.7,11.9c1.3,3.1,3.4,5.3,6.1,6.4
		C-368.4,498.1-365.4,498.6-361.6,498.6 M-301.1,381.4h-7h-38h-7v7v35.5c-1.9-0.6-3.9-1.2-6-1.6c-4.1-0.9-8.4-1.3-12.7-1.3
		c-9.8,0-18.7,2.2-26.5,6.6c-7.9,4.4-14.3,11-19,19.8c-4.7,8.6-7,19.2-7,31.4c0,16.9,4.2,30,12.5,38.7c8.4,8.9,21,13.4,37.3,13.4
		c6.3,0,12.1-0.8,17.1-2.4c3.5-1.1,6.8-2.7,9.9-4.6l0,0l1.5,5h5.2h32.7h7v-7V388.4V381.4L-301.1,381.4z M-368.1,490.7
		c-0.9-0.4-1.7-1.3-2.2-2.6V488v-0.1c-0.5-1.1-1.1-3.6-1.1-9.1c0-6.7,0.9-11.7,2.8-14.9c1-1.6,2.7-3.8,7.2-3.8
		c3.4,0,6.2,0.8,8.5,2.4v26.3c-2.5,1.9-5.4,2.8-8.6,2.8C-365,491.6-367,491.1-368.1,490.7L-368.1,490.7z"/>
</g>
<path id="XMLID_120_" class="st2" d="M-241.8,436.4l-4.4,2.6l-1.4-9h-37.1v91.8h37.9v-60.7l2.1-0.9c4-1.6,9.3-3,16.1-4.1
	c5.3-0.9,10.4-1.5,15.1-1.8v-26.2c-4.6,0.4-9.3,1.2-13.9,2.5C-233.2,432.2-238.1,434.2-241.8,436.4z"/>
<path id="XMLID_123_" class="st2" d="M-125.9,437.5c-8.8-6.3-21.3-9.5-37.1-9.5c-7.5,0-15.3,0.6-23,1.9c-6.6,1.1-12.2,2.5-16.7,4.2
	v18.3c4.2-1.1,8.6-2,13.1-2.7c6.1-0.9,12-1.4,17.6-1.4c15.4,0,23.2,4,23.2,12v4.9h-27.4c-13.3,0-23.2,2.6-29.6,7.8
	c-6.2,5-9.2,12.3-9.2,22.1c0,9.8,2.8,16.9,8.5,21.6l0,0c5.9,4.8,13.5,7.2,22.8,7.2c13.5,0,23.8-2.9,30.7-8.8l4.2-3.6l2.6,10.3h33
	v-56.3C-113.2,452.8-117.3,443.6-125.9,437.5z M-148.7,497.2l-0.9,1c-4.5,4.9-10.5,7.3-17.7,7.3c-12.1,0-13.4-8.2-13.4-11.8
	c0-5.2,2.2-8,4.1-9.3c2.4-1.8,5.8-2.6,10.4-2.6h17.6v15.4H-148.7z"/>
<path id="XMLID_133_" class="st2" d="M5.5,530.2c0-8.1-2.5-14-7.6-18.1c-5.3-4.2-12.9-6.3-22.4-6.3h-20c-2.6,0-4.5-0.3-6-0.9
	c-2.4-0.9-3.7-3-3.7-5.7c0-4.7,4.2-7.5,12.5-8.2h0.3h0.3c8.6,0.5,10.6,0.6,11,0.6c11.4,0,19.7-2.5,24.9-7.6
	c5.2-5.1,7.7-12.2,7.7-21.7c0-2.7-0.6-5-2-7.1l-3.3-5.3h13.7c0.4-1.5,0.9-3,1.4-4.4l0.5-15.6H-24c-2.1-0.4-5.4-0.8-9.9-1.3
	c-4.4-0.5-8.3-0.7-11.5-0.7c-16.1,0-28.6,2.9-36.9,8.6c-8,5.5-11.9,13.7-11.9,25.3c0,6.1,1.1,11.2,3.4,14.9c2.2,3.7,5.9,6.9,11,9.5
	l7.4,3.8l-7.9,2.6c-4.5,1.5-7.9,3.6-10.1,6.4c-2.2,2.7-3.3,5.9-3.3,9.7c0,3.9,0,15.9,29.9,15.9H-39c3.9,0,6.5,0.2,8.3,0.8
	c2.8,0.8,4.5,3,4.5,5.8c0,5.7-6.9,7.8-25.3,7.8c-7.3,0-15.2-0.5-23.4-1.4c-6.2-0.7-11.6-1.6-16.3-2.9v19.7c4.2,1.2,9.8,2.2,16.9,2.8
	c8.6,0.8,17.2,1.2,25.5,1.2c18.9,0,32.9-2.6,41.9-7.9C1.4,545.6,5.5,539,5.5,530.2z M-61.7,459.9c0-4.9,1.4-8.7,4.3-11.1
	c2.8-2.4,6.8-3.5,12.5-3.5c5.6,0,9.7,1.1,12.3,3.4c2.8,2.4,4.2,6.2,4.2,11.2c0,5.1-1.4,8.8-4,11.1c-2.5,2.2-6.6,3.2-12.5,3.2
	c-5.8,0-9.9-1.1-12.6-3.4C-60.3,468.3-61.7,464.6-61.7,459.9z"/>
<path id="XMLID_139_" class="st2" d="M115.8,530.2c0-8.1-2.5-14-7.6-18.1c-5.3-4.2-12.9-6.3-22.4-6.3h-20c-2.6,0-4.5-0.3-6-0.9
	c-2.4-0.9-3.7-3-3.7-5.7c0-4.7,4.2-7.5,12.5-8.2h0.3h0.3c8.6,0.5,10.6,0.6,11,0.6c11.4,0,19.7-2.5,24.9-7.6
	c5.2-5.1,7.7-12.2,7.7-21.7c0-2.7-0.6-5-2-7.1l-3.3-5.3h14v-20l-35.1-0.1c-2.1-0.4-5.4-0.8-9.9-1.3c-4.4-0.5-8.3-0.7-11.5-0.7
	c-16.1,0-28.6,2.9-36.9,8.6c-8,5.5-11.9,13.7-11.9,25.3c0,6.1,1.1,11.2,3.4,14.9c2.2,3.7,5.9,6.9,11,9.5l7.4,3.8l-7.9,2.6
	c-4.5,1.5-7.9,3.6-10.1,6.4c-2.2,2.7-3.3,5.9-3.3,9.7c0,3.9,0,15.9,29.9,15.9h24.8c3.9,0,6.5,0.2,8.3,0.8c2.8,0.8,4.5,3,4.5,5.8
	c0,5.7-6.9,7.8-25.3,7.8c-7.3,0-15.2-0.5-23.4-1.4c-6.2-0.7-11.6-1.6-16.3-2.9v19.7c4.2,1.2,9.8,2.2,16.9,2.8
	c8.6,0.8,17.2,1.2,25.5,1.2c18.9,0,32.9-2.6,41.9-7.9C111.7,545.6,115.8,539,115.8,530.2z M48.6,459.9c0-4.9,1.4-8.7,4.3-11.1
	c2.8-2.4,6.8-3.5,12.5-3.5c5.6,0,9.7,1.1,12.3,3.4c2.8,2.4,4.2,6.2,4.2,11.2c0,5.1-1.4,8.8-4,11.1c-2.5,2.2-6.6,3.2-12.5,3.2
	c-5.8,0-9.9-1.1-12.6-3.4C50,468.3,48.6,464.6,48.6,459.9z"/>
<path id="XMLID_143_" class="st2" d="M171.2,436.4l-4.4,2.6l-1.4-9h-37.1v91.8h37.9v-60.7l2.1-0.9c4-1.6,9.3-3,16-4.1
	c5.3-0.9,10.4-1.5,15.1-1.8v-26.2c-4.6,0.4-9.3,1.2-13.9,2.5C179.8,432.2,175,434.2,171.2,436.4z"/>
<path id="XMLID_1_" class="st1" d="M-410.5,787.7c-3.2,1.9-6.5,3.5-10,4.6c-5,1.6-10.7,2.5-17,2.5c-33,0-49.7-17.5-49.7-51.9
	c0-12.2,2.3-22.7,7-31.4c4.7-8.7,11-15.4,19-19.8c7.8-4.4,16.7-6.6,26.4-6.6c4.2,0,8.5,0.4,12.7,1.3c2.2,0.5,4.2,1,6.2,1.7v-42.6
	h20.4c-6.4-7.3-15.7-11.9-26-11.9h-117c-19.1,0-34.5,15.4-34.5,34.4v123.4c0,19,15.4,34.4,34.4,34.4h117c18.6,0,33.7-14.7,34.4-33.1
	h-21.9L-410.5,787.7z"/>
<path class="st1" d="M-133.5,825.8h-116.6c-19.1,0-34.6-15.5-34.6-34.6v-123c0-19.1,15.5-34.6,34.6-34.6h116.6
	c19.1,0,34.6,15.5,34.6,34.6v123C-98.9,810.3-114.4,825.8-133.5,825.8z"/>
<g id="XMLID_2_">
	<path class="st2" d="M-203.6,797.9c-30.7,0-46.3-16.4-46.3-48.6c0-11.6,2.2-21.6,6.6-29.8c4.4-8.2,10.3-14.4,17.6-18.4
		c7.3-4.1,15.6-6.1,24.8-6.1c4.1,0,8.1,0.4,12,1.3c3.8,0.7,7.2,1.9,10.2,3.5v-44.3h45V796h-38.8l-2.1-7.1c-4,3-8.4,5.3-13,6.8
		C-192.2,797.2-197.6,797.9-203.6,797.9z M-190.6,727.3c-4.7,0-8.1,1.9-10.3,5.6c-2.1,3.7-3.2,9.3-3.2,16.6c0,4.9,0.5,8.4,1.4,10.5
		c1,2.3,2.4,3.8,4.2,4.6c1.9,0.8,4.6,1.1,7.8,1.1c4.6,0,8.5-1.5,12-4.5l0.1-0.1v-29.6C-181.8,728.6-185.8,727.3-190.6,727.3z"/>
	<path class="st0" d="M-137.2,658.9v133.5h-32.7l-2.8-9.4l-4,3c-3.7,2.8-7.7,4.9-12,6.3c-4.3,1.4-9.3,2.1-14.9,2.1
		c-28.8,0-42.8-14.8-42.8-45.1c0-11,2.1-20.5,6.2-28.1c4-7.5,9.5-13.3,16.2-17c6.8-3.8,14.6-5.7,23.1-5.7c3.8,0,7.6,0.4,11.3,1.2
		c3.6,0.7,6.8,1.8,9.4,3.2l5,2.6v-46.6L-137.2,658.9 M-190.7,769.1c5.4,0,10.2-1.8,14.3-5.4l1.2-1h0.1v-33l-1.2-1
		c-3.8-3.3-8.6-5-14.3-5c-5.9,0-10.5,2.5-13.3,7.3c-2.5,4.3-3.7,10.4-3.7,18.4c0,5.3,0.5,9.2,1.7,11.9c1.3,3.1,3.4,5.3,6.1,6.4
		C-197.5,768.6-194.5,769.1-190.7,769.1 M-130.2,651.9h-7h-38h-7v7v35.5c-1.9-0.6-3.9-1.2-6-1.6c-4.1-0.9-8.4-1.3-12.7-1.3
		c-9.8,0-18.7,2.2-26.5,6.6c-7.9,4.4-14.3,11-19,19.8c-4.7,8.6-7,19.2-7,31.4c0,16.9,4.2,30,12.5,38.7c8.4,8.9,21,13.4,37.3,13.4
		c6.3,0,12.1-0.8,17.1-2.4c3.5-1.1,6.8-2.7,9.9-4.6l0,0l1.5,5h5.2h32.7h7v-7V658.9V651.9L-130.2,651.9z M-197.2,761.3
		c-0.9-0.4-1.7-1.3-2.2-2.6v-0.1v-0.1c-0.5-1.1-1.1-3.6-1.1-9.1c0-6.7,0.9-11.7,2.8-14.9c1-1.6,2.7-3.8,7.2-3.8
		c3.4,0,6.2,0.8,8.5,2.4v26.3c-2.5,1.9-5.4,2.8-8.6,2.8C-194.1,762.1-196.1,761.7-197.2,761.3L-197.2,761.3z"/>
</g>
<rect x="-200.7" y="730.7" class="st0" width="20.1" height="31.9"/>
<g>
	<path class="st2" d="M-698.8,119.8h83.8v47.7h-83.8v93h-52v-93H-835v-47.7h84.2v-87h52V119.8z"/>
</g>
</svg>
