<?xml version="1.0" encoding="utf-8"?>
<!-- Generator: Adobe Illustrator 19.0.0, SVG Export Plug-In . SVG Version: 6.00 Build 0)  -->
<svg version="1.1" id="Layer_1" xmlns="http://www.w3.org/2000/svg" xmlns:xlink="http://www.w3.org/1999/xlink" x="0px" y="0px"
	 viewBox="0 0 560 560" style="enable-background:new 0 0 560 560;" xml:space="preserve">
<style type="text/css">
	.st0{fill:#FFFFFF;stroke:#FFFFFF;stroke-width:0.5;stroke-miterlimit:10;}
</style>
<g id="XMLID_54_">
	<path id="XMLID_309_" class="st0" d="M0,311c0-20.5,0-41,0-61.5c0.9-2.6,2.3-5.1,2.6-7.7C20.2,113,125.9,12.3,255.3,1.1
		c153.2-13.3,289.5,101,303.5,254.6c12.4,135.5-78.4,263.2-210.6,295.8c-12.5,3.1-25.2,5.7-37.8,8.5c-20.5,0-41,0-61.5,0
		c-2.6-0.9-5.1-2.2-7.7-2.7C124.5,537.2,47.9,470.5,11.2,358.1C6.2,342.8,3.7,326.7,0,311z M280.6,42.2
		C148.6,42,41.9,147.9,41.7,279.3c-0.2,132,105.7,238.8,237.1,239c132,0.2,238.8-105.8,239-237.1C517.9,149.1,412,42.4,280.6,42.2z"
		/>
	<path id="XMLID_303_" class="st0" d="M248.8,211.5c1.6-29.8,3-59.6,5-89.3c1-14.9,8.6-23.2,19.7-22.2c13.2,1.1,18.1,10.1,18.6,22.1
		c2.3,49.3,4.3,98.7,7.1,148c0.4,6.7,3.4,14.4,7.7,19.6c28.9,34.2,58.4,67.8,87.8,101.5c7.1,8.2,9.6,17,3.8,26.8
		c-5.4,8.9-13.6,12.8-23.8,10.4c-3.9-0.9-7.8-3.2-10.8-5.9c-36.1-31.7-72.1-63.4-107.9-95.4c-10.8-9.6-11.6-22.8-11-36
		c1.2-26.5,2.7-53,4.1-79.6C249,211.5,248.9,211.5,248.8,211.5z"/>
</g>
</svg>
